<svg width="135" height="41" viewBox="0 0 135 41" fill="none" xmlns="http://www.w3.org/2000/svg">
<rect x="0.5" y="1.35889" width="134" height="39" rx="6.5" fill="black"/>
<rect x="0.5" y="1.35889" width="134" height="39" rx="6.5" stroke="#A6A6A6"/>
<path d="M81.5267 20.0597V22.3508H80.0906V23.8532H81.5267V28.9582C81.5267 30.7013 82.3152 31.3986 84.2991 31.3986C84.6478 31.3986 84.9798 31.3571 85.2703 31.3073V29.8215C85.0213 29.8464 84.8636 29.863 84.5896 29.863C83.7015 29.863 83.3113 29.4479 83.3113 28.5016V23.8532H85.2703V22.3508H83.3113V20.0597H81.5267Z" fill="white"/>
<path d="M90.3242 31.5231C92.9638 31.5231 94.5825 29.7551 94.5825 26.8249C94.5825 23.9113 92.9555 22.1349 90.3242 22.1349C87.6845 22.1349 86.0576 23.9113 86.0576 26.8249C86.0576 29.7551 87.6762 31.5231 90.3242 31.5231ZM90.3242 29.9377C88.7719 29.9377 87.9003 28.8005 87.9003 26.8249C87.9003 24.8659 88.7719 23.7204 90.3242 23.7204C91.8681 23.7204 92.748 24.8659 92.748 26.8249C92.748 28.7922 91.8681 29.9377 90.3242 29.9377Z" fill="white"/>
<path d="M95.9674 31.3488H97.752V26.0114C97.752 24.7414 98.7066 23.8864 100.06 23.8864C100.375 23.8864 100.906 23.9445 101.056 23.9943V22.2346C100.865 22.1847 100.524 22.1598 100.259 22.1598C99.0802 22.1598 98.0758 22.8073 97.8184 23.6955H97.6856V22.3093H95.9674V31.3488Z" fill="white"/>
<path d="M105.487 23.654C106.807 23.654 107.67 24.5754 107.712 25.9948H103.146C103.246 24.5837 104.167 23.654 105.487 23.654ZM107.703 28.9084C107.371 29.6139 106.633 30.0041 105.553 30.0041C104.126 30.0041 103.204 28.9997 103.146 27.4142V27.3146H109.53V26.6921C109.53 23.8532 108.01 22.1349 105.495 22.1349C102.947 22.1349 101.328 23.9694 101.328 26.8581C101.328 29.7468 102.914 31.5231 105.504 31.5231C107.571 31.5231 109.015 30.527 109.422 28.9084H107.703Z" fill="white"/>
<path d="M69.8231 28.0106C69.9607 30.2304 71.8105 31.6499 74.5636 31.6499C77.506 31.6499 79.3472 30.1615 79.3472 27.787C79.3472 25.92 78.2975 24.8876 75.7509 24.2939L74.3829 23.9584C72.7655 23.5798 72.1116 23.0722 72.1116 22.1861C72.1116 21.0676 73.1268 20.3363 74.6497 20.3363C76.095 20.3363 77.093 21.0504 77.2737 22.1947H79.1493C79.0374 20.104 77.1963 18.6328 74.6755 18.6328C71.9654 18.6328 70.1586 20.104 70.1586 22.3151C70.1586 24.1391 71.1824 25.2231 73.4279 25.7479L75.0282 26.1351C76.6715 26.5222 77.3942 27.0901 77.3942 28.0365C77.3942 29.1377 76.2585 29.9378 74.7099 29.9378C73.0494 29.9378 71.8965 29.1893 71.7331 28.0106H69.8231Z" fill="white"/>
<path d="M51.3357 22.1598C50.1072 22.1598 49.0447 22.7741 48.4969 23.8034H48.3641V22.3093H46.6458V34.3537H48.4305V29.9792H48.5716C49.0447 30.9338 50.0657 31.4982 51.3523 31.4982C53.6351 31.4982 55.0877 29.697 55.0877 26.8249C55.0877 23.9528 53.6351 22.1598 51.3357 22.1598ZM50.8294 29.8962C49.3353 29.8962 48.3973 28.7175 48.3973 26.8332C48.3973 24.9406 49.3353 23.7619 50.8377 23.7619C52.3484 23.7619 53.2532 24.9157 53.2532 26.8249C53.2532 28.7424 52.3484 29.8962 50.8294 29.8962Z" fill="white"/>
<path d="M61.3325 22.1598C60.104 22.1598 59.0415 22.7741 58.4937 23.8034H58.3609V22.3093H56.6426V34.3537H58.4273V29.9792H58.5684C59.0415 30.9338 60.0625 31.4982 61.3491 31.4982C63.6319 31.4982 65.0845 29.697 65.0845 26.8249C65.0845 23.9528 63.6319 22.1598 61.3325 22.1598ZM60.8262 29.8962C59.3321 29.8962 58.3941 28.7175 58.3941 26.8332C58.3941 24.9406 59.3321 23.7619 60.8345 23.7619C62.3452 23.7619 63.25 24.9157 63.25 26.8249C63.25 28.7424 62.3452 29.8962 60.8262 29.8962Z" fill="white"/>
<path d="M43.4438 31.3488H45.4914L41.009 18.9339H38.9356L34.4531 31.3488H36.4319L37.5762 28.0537H42.3081L43.4438 31.3488ZM39.8733 21.1881H40.0196L41.8177 26.4362H38.0666L39.8733 21.1881Z" fill="white"/>
<path d="M35.6523 9.57007V15.5591H37.8147C39.5994 15.5591 40.6328 14.4592 40.6328 12.5459C40.6328 10.6616 39.5911 9.57007 37.8147 9.57007H35.6523ZM36.582 10.4167H37.7109C38.9519 10.4167 39.6865 11.2053 39.6865 12.5583C39.6865 13.9321 38.9644 14.7124 37.7109 14.7124H36.582V10.4167Z" fill="white"/>
<path d="M43.7979 15.6462C45.1177 15.6462 45.9271 14.7622 45.9271 13.2971C45.9271 11.8403 45.1136 10.9521 43.7979 10.9521C42.4781 10.9521 41.6646 11.8403 41.6646 13.2971C41.6646 14.7622 42.4739 15.6462 43.7979 15.6462ZM43.7979 14.8535C43.0218 14.8535 42.586 14.2849 42.586 13.2971C42.586 12.3176 43.0218 11.7449 43.7979 11.7449C44.5699 11.7449 45.0098 12.3176 45.0098 13.2971C45.0098 14.2808 44.5699 14.8535 43.7979 14.8535Z" fill="white"/>
<path d="M52.8192 11.0393H51.9269L51.1217 14.4883H51.0511L50.1214 11.0393H49.2665L48.3368 14.4883H48.2704L47.461 11.0393H46.5562L47.8014 15.5591H48.7186L49.6483 12.2305H49.7188L50.6527 15.5591H51.5782L52.8192 11.0393Z" fill="white"/>
<path d="M53.8468 15.5591H54.7392V12.9153C54.7392 12.2097 55.1583 11.7698 55.8183 11.7698C56.4782 11.7698 56.7936 12.1309 56.7936 12.8572V15.5591H57.6859V12.6331C57.6859 11.5581 57.1298 10.9521 56.1212 10.9521C55.4406 10.9521 54.9923 11.2551 54.7724 11.7573H54.706V11.0393H53.8468V15.5591Z" fill="white"/>
<path d="M59.0913 15.5591H59.9836V9.27539H59.0913V15.5591Z" fill="white"/>
<path d="M63.3396 15.6462C64.6594 15.6462 65.4688 14.7622 65.4688 13.2971C65.4688 11.8403 64.6553 10.9521 63.3396 10.9521C62.0198 10.9521 61.2063 11.8403 61.2063 13.2971C61.2063 14.7622 62.0156 15.6462 63.3396 15.6462ZM63.3396 14.8535C62.5635 14.8535 62.1277 14.2849 62.1277 13.2971C62.1277 12.3176 62.5635 11.7449 63.3396 11.7449C64.1116 11.7449 64.5515 12.3176 64.5515 13.2971C64.5515 14.2808 64.1116 14.8535 63.3396 14.8535Z" fill="white"/>
<path d="M68.1275 14.8826C67.6419 14.8826 67.2891 14.646 67.2891 14.2393C67.2891 13.8408 67.5713 13.6292 68.1939 13.5876L69.2979 13.5171V13.8948C69.2979 14.4551 68.7999 14.8826 68.1275 14.8826ZM67.8992 15.6338C68.4927 15.6338 68.9866 15.3765 69.2564 14.9241H69.327V15.5591H70.1861V12.4712C70.1861 11.5166 69.5469 10.9521 68.4139 10.9521C67.3887 10.9521 66.6583 11.4502 66.5669 12.2263H67.4302C67.5298 11.9067 67.8743 11.7241 68.3724 11.7241C68.9825 11.7241 69.2979 11.9939 69.2979 12.4712V12.8613L68.0735 12.9319C66.9986 12.9983 66.3926 13.4673 66.3926 14.2808C66.3926 15.1067 67.0276 15.6338 67.8992 15.6338Z" fill="white"/>
<path d="M73.2142 15.6338C73.8368 15.6338 74.3639 15.3391 74.6336 14.8452H74.7042V15.5591H75.5592V9.27539H74.6668V11.7573H74.6004C74.3556 11.2593 73.8326 10.9646 73.2142 10.9646C72.0728 10.9646 71.3382 11.8694 71.3382 13.2971C71.3382 14.729 72.0645 15.6338 73.2142 15.6338ZM73.4674 11.7656C74.2145 11.7656 74.6834 12.3591 74.6834 13.3013C74.6834 14.2476 74.2186 14.8328 73.4674 14.8328C72.712 14.8328 72.2596 14.2559 72.2596 13.2971C72.2596 12.3467 72.7162 11.7656 73.4674 11.7656Z" fill="white"/>
<path d="M81.3457 15.6462C82.6655 15.6462 83.4748 14.7622 83.4748 13.2971C83.4748 11.8403 82.6613 10.9521 81.3457 10.9521C80.0258 10.9521 79.2124 11.8403 79.2124 13.2971C79.2124 14.7622 80.0217 15.6462 81.3457 15.6462ZM81.3457 14.8535C80.5695 14.8535 80.1337 14.2849 80.1337 13.2971C80.1337 12.3176 80.5695 11.7449 81.3457 11.7449C82.1176 11.7449 82.5576 12.3176 82.5576 13.2971C82.5576 14.2808 82.1176 14.8535 81.3457 14.8535Z" fill="white"/>
<path d="M84.656 15.5591H85.5483V12.9153C85.5483 12.2097 85.9675 11.7698 86.6274 11.7698C87.2874 11.7698 87.6028 12.1309 87.6028 12.8572V15.5591H88.4951V12.6331C88.4951 11.5581 87.939 10.9521 86.9304 10.9521C86.2498 10.9521 85.8015 11.2551 85.5815 11.7573H85.5151V11.0393H84.656V15.5591Z" fill="white"/>
<path d="M92.6048 9.91455V11.0601H91.8868V11.8113H92.6048V14.3638C92.6048 15.2354 92.9991 15.584 93.9911 15.584C94.1654 15.584 94.3314 15.5632 94.4767 15.5383V14.7954C94.3521 14.8079 94.2733 14.8162 94.1363 14.8162C93.6922 14.8162 93.4972 14.6086 93.4972 14.1355V11.8113H94.4767V11.0601H93.4972V9.91455H92.6048Z" fill="white"/>
<path d="M95.6745 15.5591H96.5668V12.9194C96.5668 12.2346 96.9735 11.7739 97.704 11.7739C98.3349 11.7739 98.671 12.1392 98.671 12.8613V15.5591H99.5634V12.6414C99.5634 11.5664 98.9699 10.9563 98.007 10.9563C97.3263 10.9563 96.849 11.2593 96.6291 11.7656H96.5585V9.27539H95.6745V15.5591Z" fill="white"/>
<path d="M102.782 11.7117C103.442 11.7117 103.874 12.1724 103.895 12.8821H101.612C101.662 12.1765 102.123 11.7117 102.782 11.7117ZM103.891 14.3389C103.725 14.6917 103.355 14.8867 102.816 14.8867C102.102 14.8867 101.641 14.3845 101.612 13.5918V13.542H104.804V13.2307C104.804 11.8113 104.044 10.9521 102.787 10.9521C101.512 10.9521 100.703 11.8694 100.703 13.3137C100.703 14.7581 101.496 15.6462 102.791 15.6462C103.824 15.6462 104.546 15.1482 104.75 14.3389H103.891Z" fill="white"/>
<path d="M24.77 21.1595C24.7916 19.4785 25.6944 17.8879 27.1265 17.0074C26.2231 15.7171 24.7098 14.899 23.1354 14.8497C21.4561 14.6735 19.8282 15.8546 18.9725 15.8546C18.1002 15.8546 16.7827 14.8672 15.364 14.8964C13.5147 14.9562 11.7907 16.0075 10.891 17.6243C8.95705 20.9727 10.3996 25.8937 12.2522 28.6004C13.1791 29.9257 14.2624 31.4062 15.6799 31.3537C17.0669 31.2961 17.585 30.4692 19.2593 30.4692C20.918 30.4692 21.4041 31.3537 22.8503 31.3203C24.3387 31.2961 25.2764 29.989 26.1708 28.6511C26.8368 27.7068 27.3492 26.6631 27.6892 25.5586C25.9401 24.8188 24.772 23.0586 24.77 21.1595Z" fill="white"/>
<path d="M22.0383 13.0697C22.8498 12.0955 23.2496 10.8433 23.1528 9.5791C21.913 9.70932 20.7677 10.3019 19.9452 11.2387C19.141 12.154 18.7224 13.3842 18.8015 14.6001C20.0418 14.6129 21.2611 14.0364 22.0383 13.0697Z" fill="white"/>
</svg>
