 <svg width="21" height="21" viewBox="0 0 21 21" fill="none" xmlns="http://www.w3.org/2000/svg">
                                    <path d="M10.116 20.3062C15.6274 20.3062 20.0953 15.8384 20.0953 10.3269C20.0953 4.81554 15.6274 0.347656 10.116 0.347656C4.6046 0.347656 0.136719 4.81554 0.136719 10.3269C0.136719 15.8384 4.6046 20.3062 10.116 20.3062Z" fill="url(#paint0_linear_4569_7139)"/>
                                    <path d="M10.116 0.347656V20.3062C7.46934 20.3062 4.93107 19.2549 3.05959 17.3834C1.18811 15.5119 0.136719 12.9736 0.136719 10.3269C0.136719 7.68027 1.18811 5.142 3.05959 3.27052C4.93107 1.39904 7.46934 0.347656 10.116 0.347656Z" fill="url(#paint1_linear_4569_7139)"/>
                                    <path d="M10.1144 18.0862C14.3995 18.0862 17.8733 14.6124 17.8733 10.3273C17.8733 6.04214 14.3995 2.56836 10.1144 2.56836C5.82925 2.56836 2.35547 6.04214 2.35547 10.3273C2.35547 14.6124 5.82925 18.0862 10.1144 18.0862Z" fill="url(#paint2_linear_4569_7139)"/>
                                    <path d="M10.1144 2.56836V18.0862C8.05658 18.0862 6.08307 17.2687 4.628 15.8136C3.17292 14.3586 2.35547 12.385 2.35547 10.3273C2.35547 8.26947 3.17292 6.29596 4.628 4.84089C6.08307 3.38581 8.05658 2.56836 10.1144 2.56836Z" fill="url(#paint3_linear_4569_7139)"/>
                                    <path d="M7.83984 13.7661L11.9355 17.8576C13.6769 17.4424 15.2198 16.4348 16.3 15.0072C17.3802 13.5796 17.9304 11.8208 17.8566 10.0321L14.7131 6.88867L7.83984 13.7661Z" fill="url(#paint4_linear_4569_7139)"/>
                                    <path d="M8.72396 14.131C8.39324 14.1307 8.07617 13.9991 7.84246 13.7651L5.51812 11.4366C5.39556 11.3224 5.29726 11.1847 5.22908 11.0317C5.1609 10.8787 5.12424 10.7135 5.12129 10.546C5.11833 10.3785 5.14914 10.2121 5.21188 10.0568C5.27462 9.9015 5.368 9.7604 5.48645 9.64195C5.6049 9.52349 5.746 9.43011 5.90133 9.36738C6.05665 9.30464 6.22302 9.27383 6.39051 9.27678C6.558 9.27974 6.72318 9.3164 6.8762 9.38458C7.02921 9.45275 7.16693 9.55105 7.28113 9.67361L8.72396 11.1165L12.9527 6.88773C13.1881 6.65394 13.5068 6.52325 13.8386 6.52442C14.1704 6.52559 14.4881 6.65852 14.7219 6.89396C14.9557 7.12941 15.0864 7.44808 15.0852 7.77988C15.0841 8.11168 14.9511 8.42942 14.7157 8.66321L9.60963 13.7651C9.49341 13.8815 9.35533 13.9737 9.20333 14.0365C9.05134 14.0993 8.88842 14.1314 8.72396 14.131Z" fill="white"/>
                                    <defs>
                                    <linearGradient id="paint0_linear_4569_7139" x1="10.116" y1="-17.6899" x2="10.116" y2="54.897" gradientUnits="userSpaceOnUse">
                                    <stop stop-color="white"/>
                                    <stop offset="0.13" stop-color="#F5FCFD"/>
                                    <stop offset="0.36" stop-color="#DAF3F9"/>
                                    <stop offset="0.58" stop-color="#B9E8F3"/>
                                    <stop offset="0.85" stop-color="#8CD9EB"/>
                                    <stop offset="1" stop-color="#71D0E6"/>
                                    </linearGradient>
                                    <linearGradient id="paint1_linear_4569_7139" x1="5.12636" y1="-22.3095" x2="5.12636" y2="34.6265" gradientUnits="userSpaceOnUse">
                                    <stop stop-color="white"/>
                                    <stop offset="0.13" stop-color="#F5FCFD"/>
                                    <stop offset="0.36" stop-color="#DAF3F9"/>
                                    <stop offset="0.58" stop-color="#B9E8F3"/>
                                    <stop offset="0.85" stop-color="#8CD9EB"/>
                                    <stop offset="1" stop-color="#71D0E6"/>
                                    </linearGradient>
                                    <linearGradient id="paint2_linear_4569_7139" x1="10.1144" y1="0.988305" x2="10.1144" y2="18.872" gradientUnits="userSpaceOnUse">
                                    <stop stop-color="#78E9EF"/>
                                    <stop offset="0.18" stop-color="#6BC1E3"/>
                                    <stop offset="0.46" stop-color="#5889D1"/>
                                    <stop offset="0.7" stop-color="#4A60C5"/>
                                    <stop offset="0.89" stop-color="#4147BD"/>
                                    <stop offset="1" stop-color="#3E3EBA"/>
                                    </linearGradient>
                                    <linearGradient id="paint3_linear_4569_7139" x1="6.23908" y1="-2.3007" x2="6.23908" y2="16.0529" gradientUnits="userSpaceOnUse">
                                    <stop stop-color="#78E9EF"/>
                                    <stop offset="0.18" stop-color="#6BC1E3"/>
                                    <stop offset="0.46" stop-color="#5889D1"/>
                                    <stop offset="0.7" stop-color="#4A60C5"/>
                                    <stop offset="0.89" stop-color="#4147BD"/>
                                    <stop offset="1" stop-color="#3E3EBA"/>
                                    </linearGradient>
                                    <linearGradient id="paint4_linear_4569_7139" x1="15.4449" y1="14.4979" x2="8.8253" y2="7.87413" gradientUnits="userSpaceOnUse">
                                    <stop stop-color="#3E3EBA" stop-opacity="0"/>
                                    <stop offset="0.23" stop-color="#3E3EBA" stop-opacity="0.29"/>
                                    <stop offset="0.49" stop-color="#3E3EBA" stop-opacity="0.6"/>
                                    <stop offset="0.72" stop-color="#3E3EBA" stop-opacity="0.82"/>
                                    <stop offset="0.89" stop-color="#3E3EBA" stop-opacity="0.95"/>
                                    <stop offset="1" stop-color="#3E3EBA"/>
                                    </linearGradient>
                                    </defs>
                                    </svg>