<svg width="140" height="37" viewBox="0 0 134 42" fill="none" xmlns="http://www.w3.org/2000/svg">
<path d="M60.7551 28.4745H60.6214C60.3462 29.2585 59.8263 29.9332 59.1382 30.399C58.4214 30.8711 57.5777 31.1135 56.7196 31.0937C54.9559 31.0937 53.5929 30.4568 52.6305 29.1829C51.6686 27.9094 51.1876 26.1232 51.1875 23.8246C51.1875 21.5261 51.6685 19.7399 52.6305 18.466C53.5928 17.1924 54.9558 16.5555 56.7196 16.5552C57.5758 16.5353 58.4183 16.7726 59.1382 17.2366C59.8324 17.7016 60.3538 18.3827 60.6214 19.1742H60.7551V10.9961H63.6683V30.773H60.7551V28.4745ZM57.6016 28.5815C58.4007 28.6089 59.1875 28.3794 59.8464 27.9266C60.1304 27.7387 60.3625 27.4823 60.5213 27.181C60.6801 26.8798 60.7606 26.5434 60.7552 26.2029V21.4456C60.7605 21.1051 60.68 20.7688 60.5212 20.4676C60.3624 20.1664 60.1303 19.9099 59.8464 19.7219C59.1874 19.2693 58.4007 19.0398 57.6016 19.0671C56.5859 19.0671 55.7752 19.3922 55.1696 20.0425C54.5636 20.6931 54.2607 21.5528 54.2608 22.6215V25.0271C54.2608 26.096 54.5638 26.9557 55.1696 27.6061C55.7752 28.2567 56.5858 28.5818 57.6016 28.5815Z" fill="white"/>
<path d="M72.7564 19.7886C73.9141 19.7886 74.7692 19.5436 75.3218 19.0536C75.5907 18.8204 75.8045 18.5304 75.9477 18.2046C76.091 17.8788 76.1602 17.5253 76.1503 17.1696V16.9826C76.1503 16.1273 75.8831 15.4725 75.3486 15.0181C74.8139 14.5639 74.0924 14.3368 73.1841 14.3367C72.3844 14.3119 71.5948 14.5209 70.9121 14.938C70.2639 15.3647 69.7241 15.9366 69.3354 16.6082L67.331 14.8711C67.6211 14.4551 67.9428 14.0619 68.2932 13.6953C68.6625 13.311 69.0856 12.9824 69.5494 12.7198C70.063 12.4303 70.6106 12.2059 71.1797 12.0516C71.8597 11.8731 72.5609 11.7876 73.2639 11.7977C74.0856 11.7908 74.9042 11.8988 75.696 12.1184C76.393 12.3068 77.0466 12.629 77.6205 13.0671C78.1464 13.476 78.5752 13.9962 78.8763 14.5904C79.1428 15.1526 79.2954 15.7621 79.3252 16.3836C79.3551 17.0052 79.2616 17.6264 79.0502 18.2117C78.8716 18.6787 78.609 19.109 78.2752 19.4812C77.9476 19.8448 77.5586 20.1478 77.126 20.3766C76.6922 20.6072 76.2291 20.7779 75.7495 20.8843V21.0178C76.2743 21.1214 76.7824 21.2968 77.2594 21.5391C77.7255 21.7751 78.1462 22.0918 78.5021 22.4744C78.8666 22.8712 79.1523 23.3337 79.344 23.8373C79.5577 24.4143 79.6619 25.0261 79.6512 25.6413C79.6653 26.3961 79.5079 27.1444 79.1908 27.8295C78.8737 28.5147 78.4052 29.119 77.8207 29.5968C77.2004 30.0999 76.4877 30.4766 75.7226 30.7058C74.8391 30.9734 73.9198 31.104 72.9967 31.0933C72.2214 31.1057 71.4481 31.0113 70.6985 30.8128C70.0834 30.6449 69.4943 30.3931 68.9478 30.0646C68.458 29.7673 68.0088 29.408 67.6114 28.9955C67.2416 28.6114 66.9063 28.1956 66.6094 27.7528L68.8274 26.0157C69.0484 26.3752 69.2941 26.719 69.5627 27.0446C69.8165 27.3529 70.1134 27.6229 70.4443 27.8464C70.7896 28.0767 71.1683 28.2525 71.5671 28.3675C72.0321 28.4985 72.5137 28.5615 72.9968 28.5545C74.1366 28.5545 75.0097 28.2827 75.6161 27.7393C76.2212 27.1959 76.524 26.4432 76.5244 25.481V25.2939C76.5244 24.3318 76.2038 23.6013 75.5626 23.1024C74.9209 22.6039 74.0121 22.3544 72.8362 22.3542H70.8586V19.7886H72.7564Z" fill="white"/>
<path d="M83.875 16.8765H86.7882V19.1749H86.9215C87.1891 18.3833 87.7106 17.7021 88.4051 17.2372C89.1249 16.7731 89.9675 16.5358 90.8237 16.5559C92.5874 16.5559 93.9502 17.1928 94.9124 18.4666C95.8745 19.7405 96.3556 21.5267 96.3558 23.8252C96.3558 26.1235 95.8747 27.9096 94.9124 29.1836C93.9505 30.4576 92.5876 31.0945 90.8237 31.0944C89.9656 31.1143 89.1218 30.8719 88.4051 30.3996C87.7168 29.934 87.1967 29.2593 86.9215 28.4752H86.7882V36.1187H83.875V16.8765ZM89.9417 28.5822C90.9571 28.5822 91.7678 28.2571 92.3737 27.6068C92.9794 26.9566 93.2822 26.097 93.2822 25.0278V22.6224C93.2822 21.5535 92.9794 20.6938 92.3737 20.0434C91.7678 19.3933 90.9571 19.0681 89.9417 19.068C89.1426 19.0406 88.3557 19.2701 87.6965 19.7228C87.4126 19.9108 87.1805 20.1672 87.0218 20.4684C86.863 20.7697 86.7827 21.106 86.7881 21.4465V26.2038C86.7826 26.5443 86.8629 26.8807 87.0217 27.182C87.1804 27.4832 87.4125 27.7396 87.6965 27.9275C88.3556 28.3804 89.1425 28.6098 89.9417 28.5822Z" fill="white"/>
<path d="M102.662 30.773C101.664 30.773 100.92 30.5191 100.43 30.0114C99.9401 29.5035 99.6952 28.7952 99.6953 27.8866V10.9961H102.608V28.3945H104.533V30.773L102.662 30.773Z" fill="white"/>
<path d="M112.762 31.0942C111.86 31.1057 110.964 30.9329 110.13 30.5865C109.355 30.2614 108.665 29.7631 108.112 29.1299C107.537 28.4564 107.1 27.6752 106.829 26.8316C106.224 24.8729 106.224 22.7769 106.829 20.8182C107.101 19.9747 107.537 19.1935 108.112 18.5199C108.665 17.887 109.355 17.3888 110.13 17.0633C111.82 16.3864 113.705 16.3864 115.395 17.0633C116.17 17.3891 116.86 17.8872 117.413 18.5199C117.988 19.1937 118.424 19.9749 118.696 20.8182C119.301 22.777 119.301 24.8728 118.696 26.8316C118.424 27.675 117.988 28.4562 117.413 29.1299C116.86 29.7628 116.17 30.261 115.395 30.5865C114.561 30.9329 113.665 31.1056 112.762 31.0942ZM112.762 28.6621C113.76 28.6621 114.562 28.3565 115.168 27.7452C115.773 27.1338 116.076 26.2169 116.076 24.9946V22.6552C116.076 21.4329 115.773 20.516 115.168 19.9046C114.562 19.2933 113.76 18.9877 112.762 18.9877C111.764 18.9877 110.963 19.2933 110.357 19.9046C109.751 20.516 109.448 21.4329 109.449 22.6552V24.9946C109.449 26.2173 109.751 27.1341 110.357 27.7452C110.963 28.3565 111.764 28.6621 112.762 28.6621Z" fill="white"/>
<path d="M130.723 16.875H133.529L127.676 33.5249C127.538 33.9403 127.354 34.3391 127.129 34.7142C126.941 35.0246 126.696 35.2967 126.407 35.5159C126.106 35.7319 125.765 35.8863 125.405 35.9703C124.949 36.0751 124.482 36.1245 124.015 36.1173H122.331V33.7387H124.683L125.485 31.387L120.434 16.8751H123.347L126.126 25.0529L126.928 28.0728H127.062L127.944 25.0529L130.723 16.875Z" fill="white"/>
<path d="M19.8244 41.1555L0.802189 33.8802L0.746094 28.8525L19.7683 36.1278L19.8244 41.1555Z" fill="url(#paint0_linear_4569_7620)"/>
<path d="M36.6326 20.8782C36.6458 20.6755 36.6529 20.473 36.6568 20.2706C36.6573 20.2465 36.6593 20.2223 36.6597 20.1982C36.6611 20.0916 36.6613 19.985 36.6601 19.8786C36.623 16.5516 35.289 14.1088 33.2899 13.1156C33.1566 13.0494 33.0204 12.9897 32.8814 12.9364L13.8592 5.66113C16.0832 6.51166 17.5983 9.05443 17.6379 12.6033C17.6394 12.7337 17.6371 12.8643 17.6346 12.995C17.6307 13.1975 17.6236 13.4001 17.6104 13.6029L17.6101 13.6096C17.5966 13.8148 17.577 14.0201 17.5542 14.2252C17.5464 14.296 17.5374 14.3667 17.5285 14.4375C17.5156 14.5398 17.5021 14.6421 17.4869 14.7443C17.4756 14.8202 17.4637 14.896 17.4511 14.9718C17.4344 15.0733 17.4167 15.1748 17.3978 15.276C17.3832 15.3542 17.3684 15.4323 17.3526 15.5103C17.3354 15.5951 17.3174 15.6798 17.2985 15.7643C17.2803 15.8464 17.2619 15.9285 17.2424 16.0103C17.2223 16.0947 17.2012 16.1787 17.1796 16.2627C17.1584 16.3454 17.1369 16.4279 17.1144 16.5102C17.0933 16.5871 17.0714 16.6637 17.0492 16.7402C17.0247 16.8244 16.9996 16.9084 16.9738 16.9922C16.9502 17.0683 16.9261 17.1443 16.9013 17.2201C16.8742 17.3035 16.8463 17.3867 16.8178 17.4696C16.7921 17.5443 16.7658 17.6188 16.739 17.693C16.7091 17.7758 16.6785 17.8582 16.6472 17.9404C16.6193 18.0138 16.5909 18.0871 16.562 18.1601C16.5302 18.24 16.4977 18.3197 16.4646 18.3989C16.4323 18.4765 16.3995 18.5537 16.3662 18.6306C16.3325 18.7081 16.2982 18.7851 16.2632 18.8619C16.2286 18.938 16.1936 19.0138 16.158 19.0893C16.1233 19.1626 16.0879 19.2353 16.0521 19.3078C16.0103 19.3928 15.9678 19.4773 15.9247 19.5613C15.8886 19.6314 15.852 19.7011 15.815 19.7705C15.7706 19.8536 15.7254 19.9362 15.6796 20.0182C15.6433 20.0832 15.6066 20.148 15.5696 20.2124C15.5072 20.3205 15.4435 20.4274 15.3786 20.5331C15.3467 20.5854 15.3153 20.6381 15.2829 20.6898C15.1952 20.8297 15.1054 20.9675 15.0138 21.1034C15.0037 21.1183 14.9941 21.1338 14.984 21.1486C14.8591 21.3321 14.7296 21.5103 14.5979 21.6856C14.5663 21.7277 14.5346 21.7694 14.5027 21.811C14.3697 21.9839 14.2344 22.154 14.0951 22.3181C14.0054 22.4236 13.9144 22.527 13.822 22.6284C13.7984 22.6545 13.7746 22.6802 13.7508 22.7061C13.6684 22.7953 13.5852 22.883 13.5011 22.9692C13.487 22.9836 13.4732 22.9984 13.459 23.0127C13.3631 23.1098 13.266 23.2045 13.1676 23.2969C13.1432 23.3199 13.1186 23.3426 13.094 23.3653C13.0095 23.4437 12.9242 23.5203 12.8381 23.5954C12.8199 23.6113 12.8017 23.6277 12.7834 23.6435C12.6826 23.7301 12.5807 23.8142 12.4778 23.8958C12.4534 23.9152 12.4288 23.9341 12.4043 23.9532C12.3169 24.0214 12.2289 24.0878 12.1402 24.1525C12.1185 24.1683 12.097 24.1845 12.0752 24.2002C11.97 24.2755 11.8639 24.3482 11.7569 24.4182C11.733 24.4338 11.709 24.4488 11.6851 24.4642C11.5946 24.5223 11.5035 24.5784 11.4118 24.6327C11.3873 24.6472 11.363 24.662 11.3385 24.6762C11.2293 24.7394 11.1193 24.7998 11.0087 24.8575C10.986 24.8692 10.9632 24.8802 10.9405 24.8918C10.8466 24.9394 10.7523 24.985 10.6575 25.0285C10.6305 25.0408 10.6036 25.0535 10.5765 25.0656C10.4584 25.1181 10.3397 25.1681 10.2202 25.2141L0.746094 28.851L19.7683 36.1264L29.2425 32.4896C29.2568 32.484 29.271 32.4785 29.2852 32.473C29.3903 32.4319 29.4946 32.3874 29.5985 32.3412C29.6258 32.3291 29.653 32.3163 29.6802 32.3038C29.7747 32.2604 29.8686 32.2151 29.9621 32.1676C29.9852 32.1559 30.0083 32.1448 30.0313 32.1328C30.1418 32.0754 30.2515 32.0152 30.3604 31.952C30.3852 31.9376 30.4099 31.9225 30.4347 31.9078C30.526 31.8538 30.6168 31.7978 30.7069 31.74C30.731 31.7245 30.7553 31.7094 30.7794 31.6937C30.8863 31.6236 30.9923 31.551 31.0974 31.4758C31.1193 31.4601 31.141 31.4438 31.1629 31.4279C31.2513 31.3634 31.339 31.2973 31.4261 31.2293C31.4509 31.2099 31.4757 31.1908 31.5005 31.1712C31.6031 31.0895 31.7047 31.0056 31.8054 30.9194C31.8241 30.9033 31.8426 30.8866 31.8612 30.8703C31.947 30.7956 32.0321 30.7191 32.1163 30.641C32.1408 30.6182 32.1655 30.5955 32.19 30.5724C32.2881 30.4799 32.3852 30.3852 32.4812 30.2885C32.4956 30.274 32.5097 30.2589 32.524 30.2442C32.608 30.1584 32.691 30.0708 32.7731 29.9816C32.7969 29.9558 32.8208 29.93 32.8444 29.9039C32.9346 29.8044 33.024 29.7038 33.1118 29.6005C33.1136 29.5983 33.1154 29.5959 33.1173 29.5937C33.2567 29.4295 33.3919 29.2594 33.5251 29.0863C33.557 29.0448 33.5887 29.0031 33.6201 28.9612C33.7519 28.7858 33.8814 28.6077 34.0063 28.4241L34.0092 28.4201C34.0184 28.4066 34.0269 28.3924 34.036 28.3789C34.1277 28.2431 34.2174 28.1052 34.3052 27.9653C34.3376 27.9137 34.3689 27.8611 34.4007 27.8088C34.4655 27.7027 34.5292 27.5957 34.5919 27.4878C34.6073 27.4612 34.6237 27.4356 34.639 27.4088C34.6605 27.371 34.6806 27.3319 34.7018 27.2938C34.7477 27.2117 34.7928 27.1291 34.8373 27.046C34.8743 26.9767 34.9109 26.9071 34.9469 26.8371C34.9902 26.753 35.0328 26.6683 35.0746 26.5832C35.0941 26.5435 35.1149 26.5046 35.1342 26.4646C35.1501 26.4317 35.1646 26.398 35.1803 26.3649C35.216 26.2895 35.251 26.2137 35.2854 26.1375C35.3203 26.0606 35.3547 25.9834 35.3886 25.9059C35.422 25.8291 35.4547 25.752 35.4867 25.6746C35.5049 25.6308 35.5245 25.5876 35.5424 25.5435C35.5569 25.5078 35.57 25.4714 35.5842 25.4356C35.6132 25.3626 35.6416 25.2893 35.6695 25.2158C35.7007 25.1335 35.7313 25.051 35.7613 24.9682C35.7881 24.8941 35.8143 24.8197 35.84 24.7452C35.854 24.7046 35.8692 24.6644 35.8828 24.6237C35.8971 24.5812 35.9097 24.5381 35.9236 24.4955C35.9483 24.4198 35.9724 24.3439 35.996 24.2678C36.0219 24.1839 36.0471 24.0999 36.0714 24.0156C36.0937 23.9391 36.1154 23.8624 36.1367 23.7856C36.1465 23.7499 36.1575 23.7144 36.167 23.6786C36.1795 23.6319 36.19 23.5847 36.202 23.5379C36.2235 23.4541 36.2445 23.3702 36.2646 23.2861C36.2841 23.2041 36.3026 23.122 36.3208 23.0397C36.3395 22.9552 36.3575 22.8705 36.3749 22.7857C36.3823 22.7491 36.391 22.7127 36.3982 22.6761C36.4063 22.6346 36.4124 22.5928 36.4201 22.5512C36.4389 22.4502 36.4566 22.3491 36.4733 22.2478C36.4858 22.1717 36.4978 22.0955 36.5092 22.0192C36.5243 21.9175 36.5378 21.8157 36.5507 21.7137C36.5567 21.6658 36.5646 21.6181 36.5702 21.5702C36.5729 21.5469 36.5739 21.5236 36.5765 21.5003C36.5992 21.2953 36.6189 21.0902 36.6324 20.8851L36.6326 20.8782Z" fill="url(#paint1_linear_4569_7620)"/>
<path d="M28.9703 8.01991C35.2665 5.60299 40.4629 10.2542 40.5537 18.3863C40.6445 26.5198 35.5958 35.1022 29.2995 37.5192L19.8253 41.156L19.7692 36.1283L29.2434 32.4915C33.393 30.8986 36.7208 25.2416 36.661 19.8805C36.6012 14.521 33.176 11.4562 29.0264 13.0491L19.5522 16.6859L19.4961 11.6567L28.9703 8.01991Z" fill="url(#paint2_linear_4569_7620)"/>
<path d="M19.5509 16.6844L0.528751 9.40891L0.472656 4.37988L19.4948 11.6552L19.5509 16.6844Z" fill="url(#paint3_linear_4569_7620)"/>
<path d="M29.5035 7.83205C29.593 7.80306 29.6826 7.77367 29.7716 7.74755C29.8242 7.73212 29.8763 7.71918 29.9286 7.70475C30.0085 7.68275 30.0885 7.66008 30.1679 7.64032C30.2237 7.62645 30.279 7.61507 30.3346 7.60226C30.4098 7.58503 30.4852 7.56706 30.56 7.55189C30.6789 7.5278 30.7972 7.50617 30.9149 7.48701C30.9344 7.48388 30.9537 7.48168 30.9731 7.47874C31.072 7.4635 31.1705 7.44973 31.2686 7.43808C31.309 7.43328 31.3492 7.42969 31.3895 7.42549C31.4666 7.41746 31.5436 7.41007 31.6202 7.40426C31.6647 7.40095 31.7089 7.39822 31.7532 7.39559C31.8106 7.39219 31.8677 7.38989 31.9248 7.38771C32.0898 7.38146 32.2539 7.37859 32.416 7.38263C32.4217 7.38278 32.4273 7.38329 32.433 7.38346C32.5904 7.38773 32.7459 7.39835 32.9005 7.41212C32.9406 7.41572 32.9808 7.41946 33.0207 7.4237C33.1651 7.43901 33.3085 7.45732 33.4501 7.4809C33.4575 7.48213 33.465 7.48289 33.4724 7.48413C33.6205 7.50927 33.7666 7.54039 33.9116 7.57443C33.9533 7.58421 33.9947 7.59465 34.036 7.60517C34.1306 7.62919 34.2243 7.65511 34.3173 7.68294C34.3569 7.69476 34.3968 7.70611 34.436 7.71854C34.5649 7.75951 34.6929 7.80293 34.8188 7.85118L15.7967 0.575957C15.6706 0.527755 15.5426 0.484252 15.4137 0.443265C15.3746 0.430838 15.335 0.419619 15.2957 0.40787C15.2023 0.379983 15.1082 0.35396 15.0135 0.329801C14.9891 0.323612 14.9655 0.315686 14.941 0.309762C14.9241 0.305658 14.9066 0.303143 14.8897 0.299205C14.7445 0.265101 14.5983 0.233992 14.45 0.208824C14.443 0.207633 14.4358 0.206905 14.4287 0.20573C14.2869 0.182084 14.1432 0.163766 13.9985 0.148427C13.9788 0.146342 13.9597 0.142553 13.94 0.140617C13.9197 0.138631 13.8986 0.138664 13.8783 0.136844C13.7237 0.12301 13.5682 0.112437 13.4107 0.108168C13.4051 0.108002 13.3995 0.107489 13.3938 0.10734C13.2316 0.103302 13.0676 0.106165 12.9026 0.11242C12.8823 0.113198 12.8627 0.112122 12.8424 0.113049C12.8055 0.114704 12.7681 0.118013 12.731 0.120297C12.6867 0.122928 12.6425 0.125608 12.598 0.128967C12.5214 0.134792 12.4444 0.142205 12.3672 0.150197C12.3269 0.154384 12.2868 0.158008 12.2464 0.16279C12.1482 0.174373 12.0496 0.188239 11.9506 0.203496C11.9313 0.206491 11.9121 0.208642 11.8927 0.21177C11.7819 0.22963 11.6706 0.24969 11.5588 0.271952C11.5519 0.273358 11.5447 0.275261 11.5377 0.276668C11.4636 0.291692 11.389 0.30953 11.3145 0.326557C11.2581 0.339448 11.2019 0.351031 11.1453 0.365096C11.0668 0.384572 10.9876 0.407093 10.9087 0.428836C10.8555 0.443464 10.8026 0.456602 10.7493 0.472256C10.6615 0.498036 10.5731 0.527076 10.4848 0.555653C10.4396 0.570232 10.3948 0.583171 10.3496 0.598494C10.2159 0.643789 10.0816 0.692261 9.94681 0.743911L0.472656 4.38069L19.4949 11.656L28.9691 8.01922C29.1039 7.96746 29.2382 7.91897 29.372 7.87375C29.416 7.85884 29.4596 7.84625 29.5035 7.83205Z" fill="url(#paint4_linear_4569_7620)"/>
<path d="M30.9592 20.0575C32.0337 19.6451 32.9175 20.4359 32.933 21.8252C32.9485 23.213 32.0898 24.6727 31.0153 25.0852L19.6538 29.4465L19.5977 24.4189L30.9592 20.0575Z" fill="#1D2530"/>
<path d="M19.6564 29.4456L0.63422 22.1703L0.578125 17.1426L19.6003 24.4179L19.6564 29.4456Z" fill="url(#paint5_linear_4569_7620)"/>
<path d="M31.099 20.0109C31.1148 20.0063 31.1302 20.0033 31.1459 19.9992C31.1753 19.9915 31.2048 19.9834 31.2338 19.9775C31.2382 19.9766 31.2425 19.9763 31.2469 19.9754C31.3097 19.9633 31.3733 19.9555 31.4372 19.9518C31.4475 19.9512 31.458 19.9501 31.4682 19.9497C31.5228 19.9476 31.5775 19.949 31.6319 19.9538C31.6441 19.9549 31.656 19.9567 31.668 19.9581C31.7093 19.963 31.7503 19.9699 31.7908 19.9789C31.8033 19.9817 31.8159 19.984 31.8283 19.9872C31.873 19.9983 31.917 20.012 31.9602 20.0282L21.3819 15.9824L19.5527 16.6846L10.6466 13.2783L0.578125 17.1433L19.6003 24.4186L30.9619 20.0573C31.008 20.0396 31.0537 20.0241 31.099 20.0109Z" fill="url(#paint6_linear_4569_7620)"/>
<path opacity="0.42" d="M4.48438 15.65L19.9727 21.8198L27.7618 18.4144L21.3743 15.988L19.544 16.7007L10.6356 13.2812L4.48438 15.65Z" fill="#1D2530"/>
<defs>
<linearGradient id="paint0_linear_4569_7620" x1="3.74026" y1="35.0041" x2="22.8186" y2="35.0041" gradientUnits="userSpaceOnUse">
<stop stop-color="#31E2E3"/>
<stop offset="0.4449" stop-color="#2FD8D9"/>
<stop offset="0.644" stop-color="#2ED2D3"/>
<stop offset="0.929" stop-color="#28B7B8"/>
<stop offset="1" stop-color="#26AFB0"/>
</linearGradient>
<linearGradient id="paint1_linear_4569_7620" x1="13.946" y1="34.3769" x2="18.0246" y2="27.3139" gradientUnits="userSpaceOnUse">
<stop stop-color="#85F9FA"/>
<stop offset="0.4966" stop-color="#2BC6C7"/>
<stop offset="0.6245" stop-color="#29BCBF"/>
<stop offset="0.8402" stop-color="#24A2A8"/>
<stop offset="1" stop-color="#208A94"/>
</linearGradient>
<linearGradient id="paint2_linear_4569_7620" x1="26.5879" y1="-0.283493" x2="31.2381" y2="37.9293" gradientUnits="userSpaceOnUse">
<stop stop-color="white"/>
<stop offset="0.5115" stop-color="#31E2E3"/>
<stop offset="1" stop-color="#26AFB0"/>
</linearGradient>
<linearGradient id="paint3_linear_4569_7620" x1="0.00701798" y1="6.45068" x2="19.0852" y2="14.2335" gradientUnits="userSpaceOnUse">
<stop stop-color="#31E2E3"/>
<stop offset="0.2875" stop-color="#2FD8D9"/>
<stop offset="0.7722" stop-color="#29BEBF"/>
<stop offset="1" stop-color="#26AFB0"/>
</linearGradient>
<linearGradient id="paint4_linear_4569_7620" x1="13.4956" y1="13.3547" x2="22.9556" y2="-3.14541" gradientUnits="userSpaceOnUse">
<stop stop-color="white"/>
<stop offset="0.5115" stop-color="#31E2E3"/>
<stop offset="1" stop-color="#26AFB0"/>
</linearGradient>
<linearGradient id="paint5_linear_4569_7620" x1="-0.812469" y1="24.4093" x2="13.0585" y2="22.9939" gradientUnits="userSpaceOnUse">
<stop offset="0.2224" stop-color="#667085"/>
<stop offset="0.644" stop-color="#334054"/>
<stop offset="0.9218" stop-color="#222B39"/>
<stop offset="1" stop-color="#1D2530"/>
</linearGradient>
<linearGradient id="paint6_linear_4569_7620" x1="14.1944" y1="22.6672" x2="17.8621" y2="15.4519" gradientUnits="userSpaceOnUse">
<stop offset="0.2224" stop-color="#667085"/>
<stop offset="0.644" stop-color="#334054"/>
<stop offset="0.9218" stop-color="#222B39"/>
<stop offset="1" stop-color="#1D2530"/>
</linearGradient>
</defs>
</svg>
