<svg width="18" height="18" viewBox="0 0 18 18" fill="none" xmlns="http://www.w3.org/2000/svg" class="card-gift">
                        <path d="M1.08679 9.03279C0.994753 9.14176 0.944431 9.28568 0.95734 9.43898C0.963349 9.51189 0.98372 9.5829 1.01728 9.64792C1.05084 9.71293 1.09693 9.77066 1.15289 9.81779L9.68761 17.0268C9.74344 17.0741 9.80807 17.1099 9.87778 17.1321C9.94749 17.1543 10.0209 17.1625 10.0938 17.1562C10.1667 17.1502 10.2377 17.1298 10.3027 17.0963C10.3677 17.0627 10.4254 17.0166 10.4726 16.9606L15.3984 11.1289L6.01261 3.20101L1.08674 9.03275L1.08679 9.03279Z" fill="#F67656"/>
                        <path d="M5.74864 2.24664C5.70135 2.30245 5.66558 2.36706 5.64338 2.43675C5.62118 2.50645 5.61299 2.57984 5.61928 2.65272C5.6253 2.72563 5.64569 2.79663 5.67924 2.86164C5.7128 2.92665 5.75888 2.98439 5.81483 3.03153L15.6011 11.2976C15.6569 11.3449 15.7215 11.3807 15.7912 11.4029C15.8609 11.4251 15.9343 11.4333 16.0072 11.4271C16.0801 11.4211 16.1511 11.4007 16.2161 11.3672C16.2811 11.3337 16.3388 11.2876 16.386 11.2316L17.7813 9.57974C17.8285 9.52392 17.8643 9.45929 17.8865 9.3896C17.9087 9.3199 17.9169 9.24649 17.9107 9.17361C17.9046 9.1007 17.8842 9.02971 17.8507 8.96471C17.8171 8.89971 17.771 8.84198 17.7151 8.79485L7.92885 0.528747C7.81994 0.436756 7.67596 0.386389 7.52271 0.399244C7.44981 0.405256 7.37881 0.425623 7.31381 0.459174C7.2488 0.492725 7.19107 0.538798 7.14394 0.594742L5.74864 2.24664Z" fill="#E66847"/>
                        <path d="M11.0195 7.42871L10.3938 6.90016L5.10845 13.1574L5.73421 13.686L11.0195 7.42871Z" fill="white"/>
                        <path d="M14.3438 12.3789L4.95792 4.45101L4.42956 5.07654L13.8154 13.0044L14.3438 12.3789Z" fill="white"/>
                        <path d="M13.1328 4.92578L12.5071 4.39723L10.3931 6.89996L11.0188 7.42851L13.1328 4.92578Z" fill="#E6E5E5"/>
                        <path d="M12.0669 4.02389L14.5796 6.14634C15.1534 6.63098 16.0148 6.55829 16.4997 5.9842C16.9846 5.41027 16.912 4.54902 16.3382 4.06433C16.0595 3.82893 15.7058 3.71641 15.3423 3.74777L12.0669 4.02389ZM15.8097 4.69003C16.0385 4.88331 16.0674 5.22672 15.874 5.45565C15.6804 5.6848 15.3369 5.71387 15.1081 5.52064L14.1058 4.67399L15.412 4.5638C15.4833 4.55741 15.5552 4.56528 15.6235 4.58695C15.6918 4.60862 15.7551 4.64366 15.8097 4.69003Z" fill="#E6E5E5"/>
                        <path d="M11.0644 3.1772L13.5773 5.29978L13.3016 2.02316C13.2873 1.8445 13.2375 1.67047 13.1554 1.51118C13.0732 1.35188 12.9602 1.21048 12.823 1.09519C12.2489 0.610281 11.3875 0.682671 10.9026 1.25665C10.4178 1.83068 10.4903 2.69229 11.0644 3.1772ZM12.5952 3.39811L11.5929 2.5515C11.3638 2.35795 11.3348 2.01425 11.5284 1.7851C11.7218 1.55617 12.0654 1.52738 12.2945 1.72089C12.3493 1.76691 12.3943 1.82335 12.4271 1.88694C12.4599 1.95053 12.4797 2.01999 12.4854 2.09129L12.5952 3.39811Z" fill="#E6E5E5"/>
                        <path d="M13.0537 3.94174L9.70059 4.22419L9.76925 5.04025L13.1224 4.75789L13.0537 3.94174Z" fill="#E6E5E5"/>
                        <path d="M13.4966 4.31426L12.6805 4.38284L12.974 7.8774L13.7902 7.80882L13.4966 4.31426Z" fill="#E6E5E5"/>
                        </svg>