 <svg width="109" height="35" viewBox="0 0 109 35" fill="none" xmlns="http://www.w3.org/2000/svg">
                                                <path d="M63.0695 8.7168V10.4912H54.7191V25.7902H52.6316V10.4912H44.2812V8.7168H63.0695Z" fill="#EB4F45"/>
                                                <path d="M66.6016 25.7306V8.7168H83.675V10.4912H68.7488V16.1724H82.9145V17.9469H68.7488V23.9561H83.675V25.7902L66.6016 25.7306Z" fill="#EB4F45"/>
                                                <path d="M89.0602 25.7902H86.9727V8.7168H90.6408L106.193 23.643V8.7168H108.281V25.7902H105.433L89.0602 10.4912V25.7902Z" fill="#EB4F45"/>
                                                <path d="M11.6827 11.2219C11.6827 11.2667 11.7125 11.3263 11.7573 11.3412L14.8737 13.056C14.9632 13.1008 15.0825 13.0411 15.0825 12.9367V0.784053C15.0825 0.679674 14.9632 0.605118 14.8737 0.664763L0.394869 8.94052C0.350135 8.95543 0.320312 9.01508 0.320312 9.05981V25.5517C0.320312 25.5964 0.350135 25.6561 0.394869 25.671L14.8737 34.1406C14.9632 34.2002 15.0825 34.1257 15.0825 34.0213V15.919C15.0825 15.8743 15.0527 15.8146 15.0079 15.7997L6.21027 10.6255C6.1208 10.5659 6.00151 10.6404 6.00151 10.7448V17.7382C6.00151 17.7829 6.03133 17.8276 6.07607 17.8575L9.19252 19.7363C9.28199 19.7959 9.40128 19.7214 9.40128 19.617V16.6944C9.40128 16.59 9.52057 16.5154 9.61004 16.5751L11.5932 17.7382C11.638 17.768 11.6678 17.8127 11.6678 17.8575V28.0717C11.6678 28.1761 11.5485 28.2506 11.459 28.191L5.79275 24.8807C5.70328 24.821 5.70328 24.6868 5.79275 24.6421L9.32672 22.6142C9.41619 22.5545 9.41619 22.4203 9.32672 22.3756L6.21027 20.4968C6.16553 20.4669 6.10589 20.4669 6.06115 20.4968L3.94375 21.7493C3.85428 21.809 3.73499 21.7344 3.73499 21.63V11.043C3.73499 10.9983 3.76482 10.9386 3.80955 10.9237L11.4739 6.5398C11.5634 6.48016 11.6827 6.55472 11.6827 6.6591V11.2219Z" fill="#EB533D"/>
                                                <path d="M17.572 0.650114C17.4826 0.590469 17.3633 0.665026 17.3633 0.769404V12.937C17.3633 13.0414 17.4826 13.1159 17.572 13.0563L20.6885 11.3415C20.7332 11.3117 20.7631 11.2669 20.7631 11.2222V6.64445C20.7631 6.54007 20.8823 6.46551 20.9718 6.52516L28.6511 10.9091C28.6959 10.9389 28.7257 10.9836 28.7257 11.0284V21.6303C28.7257 21.7347 28.6064 21.8092 28.5169 21.7496L26.3995 20.497C26.3548 20.4672 26.2951 20.4672 26.2504 20.497L23.1339 22.3758C23.0445 22.4355 23.0445 22.5697 23.1339 22.6144L26.6679 24.6424C26.7574 24.702 26.7574 24.8362 26.6679 24.8809L21.0016 28.1912C20.9122 28.2509 20.7929 28.1763 20.7929 28.0719V17.8577C20.7929 17.813 20.8227 17.7683 20.8674 17.7384L22.8506 16.5754C22.9401 16.5157 23.0594 16.5903 23.0594 16.6946V19.6173C23.0594 19.7216 23.1787 19.7962 23.2681 19.7365L26.3846 17.8577C26.4293 17.8279 26.4592 17.7832 26.4592 17.7384V10.745C26.4592 10.6407 26.3399 10.5661 26.2504 10.6258L17.4527 15.8C17.408 15.8298 17.3782 15.8745 17.3782 15.9193V34.0215C17.3782 34.1259 17.4975 34.2005 17.587 34.1408L32.0658 25.6712C32.1105 25.6414 32.1404 25.5967 32.1404 25.5519V9.06007C32.1404 9.01534 32.1105 8.95569 32.0658 8.94078L17.572 0.650114Z" fill="#EB533D"/>
                                                </svg>