<svg width="135" height="41" viewBox="0 0 135 41" fill="none" xmlns="http://www.w3.org/2000/svg">
<rect x="0.5" y="1.35889" width="134" height="39" rx="4.5" fill="black"/>
<rect x="0.5" y="1.35889" width="134" height="39" rx="4.5" stroke="#A6A6A6"/>
<path d="M68.137 22.6102C65.785 22.6102 63.868 24.3993 63.868 26.8633C63.868 29.3123 65.785 31.1163 68.137 31.1163C70.49 31.1163 72.407 29.3123 72.407 26.8633C72.406 24.3993 70.489 22.6102 68.137 22.6102ZM68.137 29.4423C66.848 29.4423 65.737 28.3793 65.737 26.8643C65.737 25.3333 66.849 24.2862 68.137 24.2862C69.426 24.2862 70.537 25.3333 70.537 26.8643C70.537 28.3783 69.426 29.4423 68.137 29.4423ZM58.823 22.6102C56.471 22.6102 54.554 24.3993 54.554 26.8633C54.554 29.3123 56.471 31.1163 58.823 31.1163C61.176 31.1163 63.093 29.3123 63.093 26.8633C63.093 24.3993 61.176 22.6102 58.823 22.6102ZM58.823 29.4423C57.534 29.4423 56.423 28.3793 56.423 26.8643C56.423 25.3333 57.535 24.2862 58.823 24.2862C60.112 24.2862 61.223 25.3333 61.223 26.8643C61.224 28.3783 60.112 29.4423 58.823 29.4423ZM47.745 23.9162V25.7203H52.063C51.934 26.7353 51.596 27.4762 51.08 27.9913C50.452 28.6193 49.469 29.3122 47.745 29.3122C45.087 29.3122 43.009 27.1693 43.009 24.5113C43.009 21.8533 45.087 19.7102 47.745 19.7102C49.179 19.7102 50.226 20.2742 50.999 20.9992L52.272 19.7263C51.192 18.6953 49.759 17.9063 47.745 17.9063C44.104 17.9063 41.043 20.8703 41.043 24.5113C41.043 28.1523 44.104 31.1163 47.745 31.1163C49.71 31.1163 51.193 30.4712 52.352 29.2632C53.544 28.0712 53.915 26.3952 53.915 25.0422C53.915 24.6242 53.883 24.2372 53.818 23.9152H47.745V23.9162ZM93.053 25.3173C92.699 24.3673 91.619 22.6102 89.412 22.6102C87.221 22.6102 85.4 24.3343 85.4 26.8633C85.4 29.2473 87.205 31.1163 89.621 31.1163C91.57 31.1163 92.698 29.9243 93.166 29.2313L91.716 28.2642C91.233 28.9732 90.572 29.4403 89.621 29.4403C88.671 29.4403 87.994 29.0052 87.559 28.1512L93.246 25.7992L93.053 25.3173ZM87.253 26.7352C87.205 25.0912 88.526 24.2543 89.477 24.2543C90.218 24.2543 90.846 24.6253 91.056 25.1563L87.253 26.7352ZM82.63 30.8593H84.498V18.3583H82.63V30.8593ZM79.568 23.5612H79.504C79.085 23.0612 78.279 22.6102 77.265 22.6102C75.138 22.6102 73.189 24.4792 73.189 26.8802C73.189 29.2642 75.138 31.1172 77.265 31.1172C78.28 31.1172 79.085 30.6663 79.504 30.1512H79.568V30.7632C79.568 32.3902 78.698 33.2603 77.297 33.2603C76.153 33.2603 75.444 32.4393 75.154 31.7463L73.527 32.4232C73.994 33.5502 75.234 34.9362 77.297 34.9362C79.488 34.9362 81.341 33.6473 81.341 30.5052V22.8692H79.569V23.5612H79.568ZM77.426 29.4423C76.137 29.4423 75.058 28.3623 75.058 26.8802C75.058 25.3812 76.137 24.2862 77.426 24.2862C78.698 24.2862 79.697 25.3812 79.697 26.8802C79.697 28.3623 78.698 29.4423 77.426 29.4423ZM101.807 18.3583H97.336V30.8593H99.201V26.1233H101.806C103.874 26.1233 105.908 24.6263 105.908 22.2413C105.908 19.8563 103.875 18.3583 101.807 18.3583ZM101.855 24.3832H99.201V20.0983H101.855C103.25 20.0983 104.042 21.2533 104.042 22.2413C104.042 23.2092 103.25 24.3832 101.855 24.3832ZM113.387 22.5883C112.036 22.5883 110.637 23.1833 110.058 24.5023L111.714 25.1932C112.068 24.5022 112.728 24.2762 113.419 24.2762C114.384 24.2762 115.365 24.8553 115.381 25.8843V26.0132C115.043 25.8202 114.319 25.5313 113.435 25.5313C111.65 25.5313 109.832 26.5122 109.832 28.3453C109.832 30.0183 111.296 31.0953 112.936 31.0953C114.19 31.0953 114.882 30.5323 115.316 29.8723H115.38V30.8373H117.182V26.0443C117.183 23.8263 115.525 22.5883 113.387 22.5883ZM113.161 29.4393C112.551 29.4393 111.698 29.1333 111.698 28.3773C111.698 27.4123 112.76 27.0422 113.677 27.0422C114.496 27.0422 114.883 27.2193 115.381 27.4603C115.236 28.6193 114.239 29.4393 113.161 29.4393ZM123.744 22.8612L121.605 28.2813H121.541L119.321 22.8612H117.311L120.64 30.4362L118.742 34.6502H120.688L125.819 22.8612H123.744ZM106.938 30.8593H108.803V18.3583H106.938V30.8593Z" fill="white"/>
<path d="M47.4176 11.1016C47.4176 11.9396 47.1696 12.6066 46.6726 13.1046C46.1086 13.6966 45.3726 13.9926 44.4686 13.9926C43.6026 13.9926 42.8656 13.6926 42.2606 13.0926C41.6546 12.4916 41.3516 11.7476 41.3516 10.8596C41.3516 9.97059 41.6546 9.22659 42.2606 8.62659C42.8656 8.02559 43.6026 7.72559 44.4686 7.72559C44.8986 7.72559 45.3096 7.80959 45.6996 7.97659C46.0906 8.14459 46.4036 8.36759 46.6376 8.64659L46.1106 9.17459C45.7136 8.69959 45.1666 8.46259 44.4676 8.46259C43.8356 8.46259 43.2896 8.68459 42.8286 9.12859C42.3676 9.57259 42.1376 10.1496 42.1376 10.8586C42.1376 11.5676 42.3676 12.1446 42.8286 12.5886C43.2896 13.0326 43.8356 13.2546 44.4676 13.2546C45.1376 13.2546 45.6966 13.0316 46.1436 12.5846C46.4336 12.2936 46.6016 11.8886 46.6466 11.3696H44.4676V10.6486H47.3746C47.4046 10.8056 47.4176 10.9566 47.4176 11.1016Z" fill="white"/>
<path d="M52.0277 8.59564H49.2957V10.4976H51.7597V11.2186H49.2957V13.1206H52.0277V13.8586H48.5247V7.85864H52.0277V8.59564Z" fill="white"/>
<path d="M55.2785 13.8586H54.5075V8.59564H52.8315V7.85864H56.9545V8.59564H55.2785V13.8586Z" fill="white"/>
<path d="M59.9375 13.8586V7.85864H60.7085V13.8586H59.9375Z" fill="white"/>
<path d="M64.1277 13.8586H63.3567V8.59564H61.6807V7.85864H65.8037V8.59564H64.1277V13.8586Z" fill="white"/>
<path d="M73.6084 13.0836C73.0184 13.6896 72.2854 13.9926 71.4084 13.9926C70.5314 13.9926 69.7984 13.6896 69.2094 13.0836C68.6194 12.4776 68.3254 11.7356 68.3254 10.8586C68.3254 9.98163 68.6194 9.23963 69.2094 8.63363C69.7984 8.02763 70.5314 7.72363 71.4084 7.72363C72.2804 7.72363 73.0124 8.02863 73.6044 8.63763C74.1964 9.24663 74.4924 9.98663 74.4924 10.8586C74.4924 11.7356 74.1974 12.4776 73.6084 13.0836ZM69.7784 12.5806C70.2224 13.0306 70.7654 13.2546 71.4084 13.2546C72.0514 13.2546 72.5954 13.0296 73.0384 12.5806C73.4824 12.1306 73.7054 11.5566 73.7054 10.8586C73.7054 10.1606 73.4824 9.58663 73.0384 9.13663C72.5954 8.68663 72.0514 8.46263 71.4084 8.46263C70.7654 8.46263 70.2224 8.68763 69.7784 9.13663C69.3354 9.58663 69.1124 10.1606 69.1124 10.8586C69.1124 11.5566 69.3354 12.1306 69.7784 12.5806Z" fill="white"/>
<path d="M75.5745 13.8586V7.85864H76.5125L79.4285 12.5256H79.4615L79.4285 11.3696V7.85864H80.1995V13.8586H79.3945L76.3435 8.96464H76.3105L76.3435 10.1206V13.8586H75.5745Z" fill="white"/>
<path d="M47.4176 11.1016C47.4176 11.9396 47.1696 12.6066 46.6726 13.1046C46.1086 13.6966 45.3726 13.9926 44.4686 13.9926C43.6026 13.9926 42.8656 13.6926 42.2606 13.0926C41.6546 12.4916 41.3516 11.7476 41.3516 10.8596C41.3516 9.97059 41.6546 9.22659 42.2606 8.62659C42.8656 8.02559 43.6026 7.72559 44.4686 7.72559C44.8986 7.72559 45.3096 7.80959 45.6996 7.97659C46.0906 8.14459 46.4036 8.36759 46.6376 8.64659L46.1106 9.17459C45.7136 8.69959 45.1666 8.46259 44.4676 8.46259C43.8356 8.46259 43.2896 8.68459 42.8286 9.12859C42.3676 9.57259 42.1376 10.1496 42.1376 10.8586C42.1376 11.5676 42.3676 12.1446 42.8286 12.5886C43.2896 13.0326 43.8356 13.2546 44.4676 13.2546C45.1376 13.2546 45.6966 13.0316 46.1436 12.5846C46.4336 12.2936 46.6016 11.8886 46.6466 11.3696H44.4676V10.6486H47.3746C47.4046 10.8056 47.4176 10.9566 47.4176 11.1016Z" stroke="white" stroke-width="0.2" stroke-miterlimit="10"/>
<path d="M52.0277 8.59564H49.2957V10.4976H51.7597V11.2186H49.2957V13.1206H52.0277V13.8586H48.5247V7.85864H52.0277V8.59564Z" stroke="white" stroke-width="0.2" stroke-miterlimit="10"/>
<path d="M55.2785 13.8586H54.5075V8.59564H52.8315V7.85864H56.9545V8.59564H55.2785V13.8586Z" stroke="white" stroke-width="0.2" stroke-miterlimit="10"/>
<path d="M59.9375 13.8586V7.85864H60.7085V13.8586H59.9375Z" stroke="white" stroke-width="0.2" stroke-miterlimit="10"/>
<path d="M64.1277 13.8586H63.3567V8.59564H61.6807V7.85864H65.8037V8.59564H64.1277V13.8586Z" stroke="white" stroke-width="0.2" stroke-miterlimit="10"/>
<path d="M73.6084 13.0836C73.0184 13.6896 72.2854 13.9926 71.4084 13.9926C70.5314 13.9926 69.7984 13.6896 69.2094 13.0836C68.6194 12.4776 68.3254 11.7356 68.3254 10.8586C68.3254 9.98163 68.6194 9.23963 69.2094 8.63363C69.7984 8.02763 70.5314 7.72363 71.4084 7.72363C72.2804 7.72363 73.0124 8.02863 73.6044 8.63763C74.1964 9.24663 74.4924 9.98663 74.4924 10.8586C74.4924 11.7356 74.1974 12.4776 73.6084 13.0836ZM69.7784 12.5806C70.2224 13.0306 70.7654 13.2546 71.4084 13.2546C72.0514 13.2546 72.5954 13.0296 73.0384 12.5806C73.4824 12.1306 73.7054 11.5566 73.7054 10.8586C73.7054 10.1606 73.4824 9.58663 73.0384 9.13663C72.5954 8.68663 72.0514 8.46263 71.4084 8.46263C70.7654 8.46263 70.2224 8.68763 69.7784 9.13663C69.3354 9.58663 69.1124 10.1606 69.1124 10.8586C69.1124 11.5566 69.3354 12.1306 69.7784 12.5806Z" stroke="white" stroke-width="0.2" stroke-miterlimit="10"/>
<path d="M75.5745 13.8586V7.85864H76.5125L79.4285 12.5256H79.4615L79.4285 11.3696V7.85864H80.1995V13.8586H79.3945L76.3435 8.96464H76.3105L76.3435 10.1206V13.8586H75.5745Z" stroke="white" stroke-width="0.2" stroke-miterlimit="10"/>
<g filter="url(#filter0_ii_4569_7467)">
<path d="M10.4357 8.39722C10.1447 8.70522 9.97266 9.18322 9.97266 9.80222V31.9182C9.97266 32.5382 10.1447 33.0152 10.4357 33.3232L10.5097 33.3952L22.8987 21.0062V20.8602V20.7142L10.5097 8.32422L10.4357 8.39722Z" fill="url(#paint0_linear_4569_7467)"/>
<path d="M27.0274 25.137L22.8984 21.006V20.86V20.714L27.0284 16.584L27.1214 16.637L32.0144 19.417C33.4114 20.211 33.4114 21.51 32.0144 22.305L27.1214 25.085L27.0274 25.137Z" fill="url(#paint1_linear_4569_7467)"/>
<g filter="url(#filter1_i_4569_7467)">
<path d="M27.1235 25.0839L22.8995 20.8599L10.4375 33.3229C10.8975 33.8109 11.6585 33.8709 12.5155 33.3849L27.1235 25.0839Z" fill="url(#paint2_linear_4569_7467)"/>
</g>
<path d="M27.1235 16.6361L12.5155 8.33608C11.6585 7.84908 10.8975 7.91008 10.4375 8.39808L22.9005 20.8611L27.1235 16.6361Z" fill="url(#paint3_linear_4569_7467)"/>
</g>
<defs>
<filter id="filter0_ii_4569_7467" x="9.97266" y="8" width="23.0898" height="25.7207" filterUnits="userSpaceOnUse" color-interpolation-filters="sRGB">
<feFlood flood-opacity="0" result="BackgroundImageFix"/>
<feBlend mode="normal" in="SourceGraphic" in2="BackgroundImageFix" result="shape"/>
<feColorMatrix in="SourceAlpha" type="matrix" values="0 0 0 0 0 0 0 0 0 0 0 0 0 0 0 0 0 0 127 0" result="hardAlpha"/>
<feOffset dy="-0.15"/>
<feComposite in2="hardAlpha" operator="arithmetic" k2="-1" k3="1"/>
<feColorMatrix type="matrix" values="0 0 0 0 0 0 0 0 0 0 0 0 0 0 0 0 0 0 0.12 0"/>
<feBlend mode="normal" in2="shape" result="effect1_innerShadow_4569_7467"/>
<feColorMatrix in="SourceAlpha" type="matrix" values="0 0 0 0 0 0 0 0 0 0 0 0 0 0 0 0 0 0 127 0" result="hardAlpha"/>
<feOffset dy="0.15"/>
<feComposite in2="hardAlpha" operator="arithmetic" k2="-1" k3="1"/>
<feColorMatrix type="matrix" values="0 0 0 0 1 0 0 0 0 1 0 0 0 0 1 0 0 0 0.25 0"/>
<feBlend mode="normal" in2="effect1_innerShadow_4569_7467" result="effect2_innerShadow_4569_7467"/>
</filter>
<filter id="filter1_i_4569_7467" x="10.4375" y="20.8599" width="16.6875" height="12.8608" filterUnits="userSpaceOnUse" color-interpolation-filters="sRGB">
<feFlood flood-opacity="0" result="BackgroundImageFix"/>
<feBlend mode="normal" in="SourceGraphic" in2="BackgroundImageFix" result="shape"/>
<feColorMatrix in="SourceAlpha" type="matrix" values="0 0 0 0 0 0 0 0 0 0 0 0 0 0 0 0 0 0 127 0" result="hardAlpha"/>
<feOffset dy="-0.15"/>
<feComposite in2="hardAlpha" operator="arithmetic" k2="-1" k3="1"/>
<feColorMatrix type="matrix" values="0 0 0 0 0 0 0 0 0 0 0 0 0 0 0 0 0 0 0.08 0"/>
<feBlend mode="normal" in2="shape" result="effect1_innerShadow_4569_7467"/>
</filter>
<linearGradient id="paint0_linear_4569_7467" x1="21.8005" y1="9.56822" x2="5.01846" y2="26.3502" gradientUnits="userSpaceOnUse">
<stop stop-color="#00A0FF"/>
<stop offset="0.0066" stop-color="#00A1FF"/>
<stop offset="0.2601" stop-color="#00BEFF"/>
<stop offset="0.5122" stop-color="#00D2FF"/>
<stop offset="0.7604" stop-color="#00DFFF"/>
<stop offset="1" stop-color="#00E3FF"/>
</linearGradient>
<linearGradient id="paint1_linear_4569_7467" x1="33.8329" y1="20.86" x2="9.63704" y2="20.86" gradientUnits="userSpaceOnUse">
<stop stop-color="#FFE000"/>
<stop offset="0.4087" stop-color="#FFBD00"/>
<stop offset="0.7754" stop-color="#FFA500"/>
<stop offset="1" stop-color="#FF9C00"/>
</linearGradient>
<linearGradient id="paint2_linear_4569_7467" x1="24.8296" y1="23.1538" x2="2.0711" y2="45.9123" gradientUnits="userSpaceOnUse">
<stop stop-color="#FF3A44"/>
<stop offset="1" stop-color="#C31162"/>
</linearGradient>
<linearGradient id="paint3_linear_4569_7467" x1="7.2989" y1="1.03588" x2="17.4612" y2="11.1982" gradientUnits="userSpaceOnUse">
<stop stop-color="#32A071"/>
<stop offset="0.0685" stop-color="#2DA771"/>
<stop offset="0.4762" stop-color="#15CF74"/>
<stop offset="0.8009" stop-color="#06E775"/>
<stop offset="1" stop-color="#00F076"/>
</linearGradient>
</defs>
</svg>
