<svg width="24" height="25" viewBox="0 0 24 25" fill="none" xmlns="http://www.w3.org/2000/svg">
<path d="M22.2234 0.629883H1.77187C0.792187 0.629883 0 1.40332 0 2.35957V22.8955C0 23.8518 0.792187 24.6299 1.77187 24.6299H22.2234C23.2031 24.6299 24 23.8518 24 22.9002V2.35957C24 1.40332 23.2031 0.629883 22.2234 0.629883ZM7.12031 21.0814H3.55781V9.62519H7.12031V21.0814ZM5.33906 8.06426C4.19531 8.06426 3.27188 7.14082 3.27188 6.00176C3.27188 4.8627 4.19531 3.93926 5.33906 3.93926C6.47813 3.93926 7.40156 4.8627 7.40156 6.00176C7.40156 7.13613 6.47813 8.06426 5.33906 8.06426ZM20.4516 21.0814H16.8937V15.5127C16.8937 14.1861 16.8703 12.4752 15.0422 12.4752C13.1906 12.4752 12.9094 13.9236 12.9094 15.4189V21.0814H9.35625V9.62519H12.7687V11.1908H12.8156C13.2891 10.2908 14.4516 9.33926 16.1813 9.33926C19.7859 9.33926 20.4516 11.7111 20.4516 14.7955V21.0814Z" fill="#98A2B3"/>
</svg>
