<svg width="18" height="19" viewBox="0 0 18 19" fill="none" xmlns="http://www.w3.org/2000/svg">
<path d="M10.125 0.493164H7.875V2.74316H10.125V0.493164ZM16.05 3.94316L14.475 2.36816L12.9 3.94316L14.475 5.51816L16.05 3.94316ZM18 8.36816H15.75V10.6182H18V8.36816ZM12.975 15.1182L14.55 16.6932L16.125 15.1182L14.55 13.5432L12.975 15.1182ZM10.125 16.2432H7.875V18.4932H10.125V16.2432ZM1.725 15.0432L3.3 16.6182L4.875 15.0432L3.3 13.4682L1.725 15.0432ZM2.25 8.36816H0V10.6182H2.25V8.36816ZM5.025 4.01816L3.45 2.44316L1.875 4.01816L3.45 5.59316L5.025 4.01816ZM9 4.99316C6.525 4.99316 4.5 7.01816 4.5 9.49316C4.5 11.9682 6.525 13.9932 9 13.9932C11.475 13.9932 13.5 11.9682 13.5 9.49316C13.5 7.01816 11.475 4.99316 9 4.99316Z" fill="#D0D5DD"/>
</svg>
