<svg width="18" height="19" viewBox="0 0 18 19" fill="none" xmlns="http://www.w3.org/2000/svg">
<path d="M10.125 0.629883H7.875V2.87988H10.125V0.629883ZM16.05 4.07988L14.475 2.50488L12.9 4.07988L14.475 5.65488L16.05 4.07988ZM18 8.50488H15.75V10.7549H18V8.50488ZM12.975 15.2549L14.55 16.8299L16.125 15.2549L14.55 13.6799L12.975 15.2549ZM10.125 16.3799H7.875V18.6299H10.125V16.3799ZM1.725 15.1799L3.3 16.7549L4.875 15.1799L3.3 13.6049L1.725 15.1799ZM2.25 8.50488H0V10.7549H2.25V8.50488ZM5.025 4.15488L3.45 2.57988L1.875 4.15488L3.45 5.72988L5.025 4.15488ZM9 5.12988C6.525 5.12988 4.5 7.15488 4.5 9.62988C4.5 12.1049 6.525 14.1299 9 14.1299C11.475 14.1299 13.5 12.1049 13.5 9.62988C13.5 7.15488 11.475 5.12988 9 5.12988Z" fill="#94A3B8"/>
</svg>
