<svg width="24" height="21" viewBox="0 0 24 21" fill="none" xmlns="http://www.w3.org/2000/svg">
<path d="M7.55016 20.3801C16.6045 20.3801 21.5583 12.8768 21.5583 6.37199C21.5583 6.16105 21.5536 5.94543 21.5442 5.73449C22.5079 5.03759 23.3395 4.17438 24 3.18543C23.1025 3.58473 22.1496 3.84551 21.1739 3.95886C22.2013 3.34304 22.9705 2.3756 23.3391 1.23589C22.3726 1.80868 21.3156 2.21274 20.2134 2.43074C19.4708 1.64169 18.489 1.11924 17.4197 0.944178C16.3504 0.769113 15.2532 0.951177 14.2977 1.46222C13.3423 1.97327 12.5818 2.78483 12.1338 3.77144C11.6859 4.75804 11.5754 5.86474 11.8195 6.92043C9.86249 6.82222 7.94794 6.31383 6.19998 5.42823C4.45203 4.54262 2.90969 3.29956 1.67297 1.77964C1.0444 2.86337 0.852057 4.14577 1.13503 5.36622C1.418 6.58666 2.15506 7.65357 3.19641 8.35011C2.41463 8.32529 1.64998 8.11481 0.965625 7.73605V7.79699C0.964925 8.93428 1.3581 10.0367 2.07831 10.9169C2.79852 11.7971 3.80132 12.4007 4.91625 12.6251C4.19206 12.8233 3.43198 12.8521 2.69484 12.7095C3.00945 13.6876 3.62157 14.543 4.44577 15.1565C5.26997 15.7699 6.26512 16.1107 7.29234 16.1314C5.54842 17.5012 3.39417 18.2443 1.17656 18.2407C0.783287 18.2401 0.390399 18.216 0 18.1686C2.25286 19.6139 4.87353 20.3815 7.55016 20.3801Z" fill="#98A2B3"/>
</svg>
