<svg width="24" height="18" viewBox="0 0 24 18" fill="none" xmlns="http://www.w3.org/2000/svg">
<path d="M23.7609 3.82969C23.7609 3.82969 23.5266 2.175 22.8047 1.44844C21.8906 0.492188 20.8688 0.4875 20.4 0.43125C17.0438 0.1875 12.0047 0.1875 12.0047 0.1875H11.9953C11.9953 0.1875 6.95625 0.1875 3.6 0.43125C3.13125 0.4875 2.10938 0.492188 1.19531 1.44844C0.473438 2.175 0.24375 3.82969 0.24375 3.82969C0.24375 3.82969 0 5.775 0 7.71563V9.53437C0 11.475 0.239062 13.4203 0.239062 13.4203C0.239062 13.4203 0.473437 15.075 1.19062 15.8016C2.10469 16.7578 3.30469 16.725 3.83906 16.8281C5.76094 17.0109 12 17.0672 12 17.0672C12 17.0672 17.0438 17.0578 20.4 16.8188C20.8688 16.7625 21.8906 16.7578 22.8047 15.8016C23.5266 15.075 23.7609 13.4203 23.7609 13.4203C23.7609 13.4203 24 11.4797 24 9.53437V7.71563C24 5.775 23.7609 3.82969 23.7609 3.82969ZM9.52031 11.7422V4.99687L16.0031 8.38125L9.52031 11.7422Z" fill="#98A2B3"/>
</svg>
